<svg width="20" height="20" viewBox="0 0 20 20" fill="none" xmlns="http://www.w3.org/2000/svg">
<path fill-rule="evenodd" clip-rule="evenodd" d="M3.44939 3.50576C4.09778 4.01177 4.34066 3.97277 5.55822 3.89577L17.0385 3.23376C17.2814 3.23376 17.0791 3.00076 16.9978 2.96176L15.0912 1.63976C14.7264 1.36775 14.2395 1.05675 13.3066 1.13375L2.19118 1.91176C1.78463 1.95076 1.70437 2.14476 1.86594 2.30176L3.44939 3.50576ZM4.13739 6.07278V17.6598C4.13739 18.2818 4.46263 18.5148 5.19233 18.4768L17.8088 17.7768C18.5385 17.7378 18.6209 17.3098 18.6209 16.8038V5.29377C18.6209 4.78977 18.4186 4.51677 17.9714 4.55577L4.78682 5.29477C4.30001 5.33377 4.13739 5.56677 4.13739 6.07278ZM16.5933 6.69378C16.6747 7.04378 16.5933 7.39378 16.2285 7.43378L15.6197 7.54978V16.1048C15.0923 16.3768 14.6054 16.5318 14.1999 16.5318C13.5505 16.5318 13.3879 16.3378 12.9021 15.7548L8.92526 9.76679V15.5598L10.1835 15.8328C10.1835 15.8328 10.1835 16.5328 9.16918 16.5328L6.37027 16.6878C6.28896 16.5318 6.37027 16.1438 6.65381 16.0658L7.38351 15.8718V8.21179L6.37027 8.13279C6.28896 7.78278 6.49119 7.27778 7.06036 7.23878L10.0625 7.04478L14.201 13.1108V7.74478L13.145 7.62878C13.0637 7.19978 13.3879 6.88878 13.7944 6.85078L16.5933 6.69378ZM1.25821 0.861752L12.8187 0.0457488C14.2395 -0.0712517 14.6044 0.00674859 15.4978 0.628751L19.1879 3.11676C19.7967 3.54476 20 3.66177 20 4.12777V17.7768C20 18.6318 19.6748 19.1368 18.5396 19.2148L5.1131 19.9928C4.25936 20.0328 3.85385 19.9158 3.40769 19.3708L0.690086 15.9878C0.203273 15.3648 0 14.8988 0 14.3538V2.22276C0 1.52276 0.325237 0.939753 1.25717 0.862752" fill="#545454"/>
</svg>
