<svg width="10" height="10" viewBox="0 0 10 10" fill="none" xmlns="http://www.w3.org/2000/svg">
<path d="M4.5 8H5.5V7H4.5V8ZM5 0C4.34339 0 3.69321 0.129329 3.08658 0.380602C2.47995 0.631876 1.92876 1.00017 1.46447 1.46447C0.526784 2.40215 0 3.67392 0 5C0 6.32608 0.526784 7.59785 1.46447 8.53553C1.92876 8.99983 2.47995 9.36812 3.08658 9.6194C3.69321 9.87067 4.34339 10 5 10C6.32608 10 7.59785 9.47322 8.53553 8.53553C9.47322 7.59785 10 6.32608 10 5C10 4.34339 9.87067 3.69321 9.6194 3.08658C9.36812 2.47995 8.99983 1.92876 8.53553 1.46447C8.07124 1.00017 7.52005 0.631876 6.91342 0.380602C6.30679 0.129329 5.65661 0 5 0ZM5 9C2.795 9 1 7.205 1 5C1 2.795 2.795 1 5 1C7.205 1 9 2.795 9 5C9 7.205 7.205 9 5 9ZM5 2C4.46957 2 3.96086 2.21071 3.58579 2.58579C3.21071 2.96086 3 3.46957 3 4H4C4 3.73478 4.10536 3.48043 4.29289 3.29289C4.48043 3.10536 4.73478 3 5 3C5.26522 3 5.51957 3.10536 5.70711 3.29289C5.89464 3.48043 6 3.73478 6 4C6 5 4.5 4.875 4.5 6.5H5.5C5.5 5.375 7 5.25 7 4C7 3.46957 6.78929 2.96086 6.41421 2.58579C6.03914 2.21071 5.53043 2 5 2Z" fill="#AEAEAE"/>
</svg>
