<svg width="18" height="18" viewBox="0 0 18 18" fill="none" xmlns="http://www.w3.org/2000/svg">
<path d="M3.158 0H14.842C15.6794 0.000529827 16.4823 0.333417 17.0745 0.925542C17.6666 1.51767 17.9995 2.32061 18 3.158V6.524C17.9184 6.51883 17.8367 6.51616 17.755 6.516C17.3143 6.51367 16.8788 6.61147 16.4814 6.80203C16.084 6.99258 15.7351 7.27091 15.461 7.616C14.989 8.202 14.703 8.993 14.633 9.882C14.6183 10.0593 14.6127 10.2367 14.616 10.414C14.663 12.428 15.751 14.038 17.684 14.038C17.792 14.038 17.8973 14.033 18 14.023V14.843C17.9992 15.6802 17.6662 16.4829 17.0741 17.0748C16.482 17.6667 15.6792 17.9995 14.842 18H3.158C2.32061 17.9995 1.51767 17.6666 0.925542 17.0745C0.333417 16.4823 0.000529827 15.6794 0 14.842V3.158C0.000529827 2.32061 0.333417 1.51767 0.925542 0.925542C1.51767 0.333417 2.32061 0.000529827 3.158 0ZM18 12.388V9.662H16.347C16.273 10.978 16.993 12.092 18 12.388ZM18 9.281V6.973C17.9165 6.95031 17.8305 6.93855 17.744 6.938C16.929 6.955 16.444 7.93 16.384 9.281H18ZM14.697 4.3L14.712 4.297V4.187H11.812L9.122 10.513L6.43 4.187H3.306V4.297L3.32 4.3C3.849 4.42 4.117 4.598 4.117 5.24V12.76C4.117 13.402 3.847 13.58 3.319 13.7L3.305 13.702V13.812H5.425V13.702L5.41 13.7C4.881 13.58 4.612 13.402 4.612 12.76V5.676L8.07 13.813H8.266L11.825 5.449V12.945C11.779 13.453 11.513 13.61 11.034 13.718L11.02 13.721V13.83H14.712V13.72L14.697 13.718C14.217 13.61 13.945 13.453 13.9 12.945L13.897 5.24H13.9C13.9 4.598 14.168 4.42 14.697 4.3Z" fill="#484848"/>
</svg>
