<svg width="14" height="14" viewBox="0 0 14 14" fill="none" xmlns="http://www.w3.org/2000/svg">
<path d="M7.15944 3.76097L1 9.92032V13L4.07972 13L10.2391 6.84064M7.15944 3.76097L9.36808 1.55234L9.36941 1.55103C9.67344 1.247 9.82572 1.09472 10.0013 1.03768C10.1559 0.987439 10.3225 0.987439 10.4771 1.03768C10.6525 1.09468 10.8047 1.24679 11.1083 1.55039L12.4478 2.88989C12.7527 3.19479 12.9052 3.34731 12.9623 3.5231C13.0126 3.67774 13.0126 3.84431 12.9623 3.99894C12.9052 4.17461 12.7529 4.3269 12.4485 4.63136L12.4478 4.63202L10.2391 6.84064M7.15944 3.76097L10.2391 6.84064" stroke="#969696" stroke-linecap="round" stroke-linejoin="round"/>
</svg>
