<svg width="18" height="18" viewBox="0 0 18 18" fill="none" xmlns="http://www.w3.org/2000/svg">
<g clip-path="url(#clip0_2251_5885)">
<path d="M2.25 0C1.0035 0 0 1.0035 0 2.25V15.75C0 16.9965 1.0035 18 2.25 18H15.75C16.9965 18 18 16.9965 18 15.75V2.25C18 1.0035 16.9965 0 15.75 0H2.25ZM7.41225 4.6875C7.88475 4.6875 8.166 4.9125 8.256 5.3625L9.35325 11.5898C9.70175 11.1283 9.98825 10.74 10.2127 10.425C10.5859 9.88795 10.908 9.31722 11.175 8.72025C11.479 8.07875 11.631 7.505 11.631 6.999C11.631 6.6955 11.5465 6.45375 11.3775 6.27375C11.22 6.08275 10.9217 5.841 10.4827 5.5485C10.9327 4.9745 11.4952 4.6875 12.1702 4.6875C12.5302 4.6875 12.8285 4.7945 13.065 5.0085C13.3125 5.222 13.436 5.537 13.4355 5.9535C13.4355 6.651 13.143 7.523 12.558 8.5695C11.9845 9.6045 10.8767 11.1625 9.23475 13.2435L7.5645 13.3605L6.28125 6.1395H4.59375V5.43C5.04375 5.2835 5.5725 5.126 6.18 4.9575C6.7875 4.7775 7.19825 4.6875 7.41225 4.6875Z" fill="#545454"/>
</g>
<defs>
<clipPath id="clip0_2251_5885">
<rect width="18" height="18" fill="white"/>
</clipPath>
</defs>
</svg>
