<svg width="25" height="25" viewBox="0 0 25 25" fill="none" xmlns="http://www.w3.org/2000/svg">
<path d="M9.58105 0.5C9.61556 0.507525 9.65103 0.513672 9.6875 0.513672H11.0322L12.5723 0.536133C12.9895 0.544614 13.3179 0.554394 13.5791 0.566406C13.9827 0.584973 14.1981 0.608211 14.3193 0.630859L14.4121 0.65332H14.4141C15.7242 1.05739 16.9107 1.78862 17.8604 2.77832L17.8799 2.79883C18.5345 3.40802 19.0617 4.14166 19.4297 4.95703C19.7516 5.67052 19.9462 6.43398 20.0059 7.21289L20.0234 7.54688C20.0241 8.03813 20.0614 8.45206 20.2129 8.79883C20.3577 9.13029 20.5846 9.35445 20.8623 9.53711L20.9844 9.61328L20.9883 9.61523C21.1957 9.735 21.3727 9.8188 21.665 9.86914C21.9181 9.91267 22.2661 9.93254 22.8145 9.95898L22.8379 9.95996C23.2357 9.96103 23.6322 10.0006 24.0225 10.0771C24.1115 10.1492 24.1891 10.2348 24.252 10.3311C24.3277 10.4471 24.3804 10.5763 24.4082 10.7119C24.5027 12.0584 24.5243 13.409 24.4727 14.7578V14.7725C24.4428 17.8274 24.4256 18.3652 24.3281 18.792L24.2812 18.9756L24.2783 18.9834C23.9824 20.1302 23.4071 21.184 22.6055 22.0518L22.4424 22.2236L22.4316 22.2344C21.3822 23.3649 19.991 24.1142 18.4766 24.3711L18.1729 24.416L18.167 24.417C17.9434 24.4472 17.1506 24.4713 16.0205 24.4854C14.9102 24.4991 13.5176 24.5026 12.1309 24.4971C10.7442 24.4916 9.36548 24.4775 8.2832 24.4551C7.74174 24.4439 7.27587 24.4309 6.92188 24.416C6.56407 24.401 6.35587 24.3842 6.28613 24.373C4.55497 24.0109 3.01571 23.0279 1.95996 21.6074L1.9502 21.5947L1.76855 21.3535C1.41676 20.864 1.13765 20.326 0.941406 19.7559L0.850586 19.4688L0.84668 19.4561L0.737305 19.0742C0.542007 18.297 0.490167 17.313 0.501953 13.9062L0.512695 11.9902V11.9893C0.526209 9.72722 0.538094 8.40745 0.561523 7.5918C0.579247 6.97493 0.603121 6.66822 0.633789 6.47363L0.666992 6.30859L0.668945 6.30078C0.938574 5.12353 1.48886 4.02893 2.27344 3.11133C3.05798 2.19381 4.05358 1.4807 5.17383 1.03223L5.17285 1.03125C6.21605 0.616074 6.93187 0.503582 9.58105 0.5ZM12.4414 15.1084C10.0361 15.1084 8.76226 15.1115 8.04395 15.1611C7.68611 15.1859 7.42109 15.2242 7.20801 15.2988C6.96948 15.3824 6.82543 15.5011 6.70605 15.6084L6.68555 15.6279C6.47296 15.8424 6.30981 16.1008 6.20703 16.3848C6.10428 16.6687 6.06387 16.9716 6.08984 17.2725C6.09136 17.29 6.0943 17.3079 6.09766 17.3252C6.15762 17.6339 6.28773 17.9249 6.47852 18.1748C6.66196 18.4151 6.89761 18.6096 7.16602 18.748V18.749C7.17258 18.7529 7.17991 18.7552 7.18652 18.7588C7.1903 18.7607 7.19348 18.7638 7.19727 18.7656V18.7646C7.28146 18.8082 7.36735 18.8318 7.43164 18.8457C7.51222 18.8631 7.60547 18.8761 7.70898 18.8867C7.91644 18.908 8.20364 18.9238 8.5918 18.9336C8.98121 18.9434 9.48277 18.9483 10.124 18.9482L12.4941 18.9326H12.4951L16.8301 18.8779L16.9033 18.8721L17.7344 18.7363C17.7871 18.7277 17.8384 18.7113 17.8857 18.6865C18.1493 18.5485 18.3759 18.3487 18.5459 18.1045C18.7159 17.8603 18.8242 17.5784 18.8623 17.2832C18.9004 16.988 18.8671 16.6876 18.7646 16.4082C18.6879 16.199 18.5743 16.0059 18.4297 15.8379L18.2744 15.6777L18.2725 15.6758L18.0713 15.5049C17.9918 15.4453 17.8976 15.386 17.7822 15.3369C17.5631 15.2437 17.2994 15.1991 16.9463 15.1709C16.2464 15.1151 14.9848 15.1152 12.5264 15.1152L12.5127 15.1133L12.4414 15.1084ZM10.1523 6.1416C8.8549 6.14169 8.1166 6.14493 7.65625 6.20801C7.40889 6.24192 7.20289 6.29738 7.01562 6.39941C6.92365 6.44955 6.84381 6.5066 6.77344 6.56543L6.58594 6.74121L6.56055 6.76758C6.35712 7.00331 6.21434 7.28563 6.14355 7.58887C6.07288 7.89189 6.07642 8.20754 6.1543 8.50879C6.23229 8.81025 6.3828 9.08852 6.5918 9.31934C6.80074 9.55005 7.06233 9.72667 7.35449 9.83398C7.39784 9.8499 7.44321 9.8598 7.48926 9.86328C8.44965 9.93556 9.41323 9.95907 10.376 9.93262L10.375 9.93164C11.5594 9.92495 12.214 9.91924 12.6016 9.89355C12.7968 9.88062 12.9534 9.86122 13.0879 9.8252C13.2379 9.78497 13.3409 9.72946 13.4287 9.6748L13.4277 9.67383C13.7107 9.50716 13.9453 9.26935 14.1055 8.98242C14.2645 8.69759 14.3441 8.37569 14.3389 8.0498C14.361 7.70266 14.2777 7.35638 14.0986 7.05762C13.9372 6.78852 13.7056 6.56976 13.4297 6.42383L13.3086 6.36523C13.2198 6.31918 13.118 6.27007 12.9854 6.2334C12.8414 6.19361 12.6824 6.17291 12.4824 6.16016C12.0907 6.13521 11.4351 6.13477 10.2207 6.13477C10.1974 6.13477 10.1748 6.13853 10.1523 6.1416Z" stroke="black" stroke-linecap="round" stroke-linejoin="round"/>
</svg>
