<svg width="27" height="27" viewBox="0 0 27 27" fill="none" xmlns="http://www.w3.org/2000/svg">
<path d="M19.085 0.501953C19.774 0.478624 20.2938 1.08537 20.2939 1.69824V3.16406H22.5049L22.7031 3.16895C23.6904 3.2182 24.6277 3.63164 25.3301 4.33301C26.0792 5.08114 26.5 6.09616 26.5 7.1543V22.5098C26.5 24.7117 24.7077 26.4998 22.5039 26.5H4.49609C2.29388 26.4998 0.5 24.7119 0.5 22.5098V7.15332L0.504883 6.95605C0.554906 5.97017 0.969578 5.03511 1.67188 4.33398C2.42105 3.58621 3.437 3.16533 4.49609 3.16406H6.70703V1.68848L6.71484 1.57227C6.74632 1.30205 6.86845 1.04926 7.0625 0.855469C7.28131 0.637072 7.57519 0.511198 7.88379 0.501953V0.500977C7.88692 0.500838 7.89043 0.502066 7.89355 0.501953L7.89648 0.500977V0.501953C8.58535 0.478832 9.10528 1.08547 9.10547 1.69824V3.16406H17.8955V1.68848L17.9043 1.57227C17.9358 1.30215 18.057 1.04922 18.251 0.855469C18.4699 0.636921 18.7644 0.511042 19.0732 0.501953V0.500977C19.0762 0.500848 19.0791 0.502059 19.082 0.501953L19.085 0.500977V0.501953ZM2.89844 22.5098C2.89844 23.3871 3.6149 24.1043 4.49609 24.1045H22.5049L22.6621 24.0957C23.0279 24.0593 23.3718 23.8983 23.6338 23.6367C23.9331 23.3377 24.1016 22.932 24.1016 22.5098V11.2617H2.89844V22.5098ZM4.49609 5.56055C3.6149 5.56077 2.89844 6.27697 2.89844 7.1543V8.86523H24.1016V7.1543C24.1016 6.27697 23.3851 5.56077 22.5039 5.56055H20.2939V5.88672C20.2939 6.5357 19.7969 6.9968 19.2314 7.07422L19.1172 7.08398C18.4222 7.11477 17.8956 6.50317 17.8955 5.88672V5.56055H9.10547V5.88672C9.10538 6.53594 8.60771 6.99706 8.04199 7.07422L7.92871 7.08398C7.23368 7.11482 6.70713 6.50319 6.70703 5.88672V5.56055H4.49609Z" stroke="black"/>
</svg>
