<svg width="15" height="14" viewBox="0 0 15 14" fill="none" xmlns="http://www.w3.org/2000/svg">
<path fill-rule="evenodd" clip-rule="evenodd" d="M4.999 4.914L7.059 2.854V2.146L4.914 0L4.207 0.707L4.25 0.75L4.5 1L5.5 2H2.5C1.83696 2 1.20107 2.26339 0.732233 2.73223C0.263392 3.20107 0 3.83696 0 4.5C0 5.16304 0.263392 5.79893 0.732233 6.26777C1.20107 6.73661 1.83696 7 2.5 7H2.999V6H2.499C2.30202 6 2.10696 5.9612 1.92497 5.88582C1.74299 5.81044 1.57763 5.69995 1.43834 5.56066C1.29905 5.42137 1.18856 5.25601 1.11318 5.07403C1.0378 4.89204 0.999 4.69698 0.999 4.5C0.999 4.30302 1.0378 4.10796 1.11318 3.92597C1.18856 3.74399 1.29905 3.57863 1.43834 3.43934C1.57763 3.30005 1.74299 3.18956 1.92497 3.11418C2.10696 3.0388 2.30202 3 2.499 3H5.499L4.206 4.293L4.913 5L4.999 4.914ZM9.999 1H7.327L6.327 0H10.999L11.709 0.29L14.709 3.29L14.999 4V13L13.999 14H4.999L3.999 13V5.5L4.999 6.347V13H13.999V5H9.999V1ZM10.999 1V4H13.999L10.999 1Z" fill="#AEAEAE"/>
</svg>
