<svg width="30" height="27" viewBox="0 0 30 27" fill="none" xmlns="http://www.w3.org/2000/svg">
<path d="M14.7812 2.0625C18.8073 2.0625 22 5.19063 22 8.965C22 11.3162 21.395 12.5139 20.6278 13.6029C20.4536 13.8467 20.2625 14.1034 20.0544 14.3729C19.3339 15.3148 18.4676 16.4491 17.853 18.084C17.7276 18.421 17.5648 18.743 17.3676 19.0438L17.2906 19.1538C17.1223 19.3946 16.9287 19.6168 16.7131 19.8165C16.1549 20.328 15.4839 20.625 14.7812 20.625C14.08 20.625 13.4076 20.328 12.848 19.8165C12.6324 19.6164 12.4388 19.3937 12.2705 19.1524L12.1949 19.0424C11.9978 18.742 11.835 18.4206 11.7095 18.084C11.0949 16.4478 10.2286 15.3147 9.50813 14.3715C9.31204 14.1186 9.12088 13.8618 8.93475 13.6015C8.16888 12.5153 7.5625 11.3162 7.5625 8.96362C7.5625 5.19063 10.7566 2.0625 14.7812 2.0625ZM19.1359 20.1011C19.3999 19.6886 19.6171 19.2527 19.7835 18.8086C20.2812 17.4845 20.9082 16.6609 21.5957 15.7603C21.8295 15.4536 22.0701 15.1374 22.3149 14.7895C23.2911 13.4035 24.0625 11.7989 24.0625 8.96362C24.0625 3.97512 19.8687 0 14.7812 0C9.69375 0 5.5 3.97513 5.5 8.965C5.5 11.7975 6.27137 13.4035 7.24762 14.7895C7.49237 15.1374 7.733 15.4536 7.96675 15.7603C8.65425 16.6609 9.28125 17.4845 9.779 18.8086C9.94538 19.2527 10.164 19.6886 10.4266 20.1011L10.7319 23.1481C10.8333 24.1516 11.3037 25.0817 12.0518 25.758C12.8 26.4344 13.7727 26.8089 14.7812 26.8089C15.7898 26.8089 16.7625 26.4344 17.5107 25.758C18.2588 25.0817 18.7292 24.1516 18.8306 23.1481L19.1359 20.1011ZM16.8534 22.2049L16.7791 22.9419C16.7304 23.4379 16.4988 23.8981 16.1296 24.2328C15.7603 24.5676 15.2797 24.753 14.7812 24.753C14.2828 24.753 13.8022 24.5676 13.4329 24.2328C13.0637 23.8981 12.8321 23.4379 12.7834 22.9419L12.7105 22.2049C13.3293 22.5101 14.0236 22.6875 14.7812 22.6875C15.5375 22.6875 16.2332 22.5088 16.852 22.2049M1.61288 1.05738C1.78816 0.847595 2.03956 0.715996 2.31184 0.691502C2.58411 0.667008 2.85496 0.751623 3.06488 0.92675L5.12738 2.6455C5.33 2.82276 5.45527 3.07224 5.47642 3.34062C5.49758 3.60901 5.41294 3.87503 5.24059 4.08185C5.06824 4.28867 4.82185 4.41989 4.55404 4.44748C4.28624 4.47507 4.01827 4.39684 3.80737 4.2295L1.74488 2.51075C1.53489 2.33566 1.40303 2.08436 1.37828 1.81208C1.35353 1.5398 1.43791 1.26746 1.61288 1.05738ZM27.9469 1.05875C28.0337 1.16281 28.0992 1.28297 28.1396 1.41236C28.1799 1.54174 28.1944 1.67782 28.1822 1.8128C28.1699 1.94778 28.1311 2.07903 28.0681 2.19902C28.0051 2.31902 27.919 2.42541 27.8149 2.51213L25.7524 4.23088C25.6489 4.32142 25.5283 4.39034 25.3978 4.43361C25.2673 4.47687 25.1294 4.49359 24.9923 4.48278C24.8552 4.47198 24.7217 4.43386 24.5996 4.37069C24.4774 4.30751 24.3692 4.22055 24.2811 4.11491C24.1931 4.00927 24.1271 3.8871 24.087 3.75557C24.0469 3.62404 24.0334 3.48582 24.0475 3.34904C24.0616 3.21225 24.1029 3.07967 24.169 2.95908C24.2351 2.8385 24.3247 2.73235 24.4324 2.64688L26.4949 0.928125C26.705 0.753158 26.9759 0.668776 27.2482 0.693528C27.5205 0.718281 27.7718 0.848767 27.9469 1.05875ZM0 8.25C0 7.9765 0.108649 7.71419 0.302046 7.5208C0.495443 7.3274 0.757746 7.21875 1.03125 7.21875H3.78125C4.05475 7.21875 4.31706 7.3274 4.51045 7.5208C4.70385 7.71419 4.8125 7.9765 4.8125 8.25C4.8125 8.5235 4.70385 8.78581 4.51045 8.9792C4.31706 9.1726 4.05475 9.28125 3.78125 9.28125H1.03125C0.757746 9.28125 0.495443 9.1726 0.302046 8.9792C0.108649 8.78581 0 8.5235 0 8.25ZM24.75 8.25C24.75 7.9765 24.8586 7.71419 25.052 7.5208C25.2454 7.3274 25.5077 7.21875 25.7812 7.21875H28.5312C28.8048 7.21875 29.0671 7.3274 29.2605 7.5208C29.4539 7.71419 29.5625 7.9765 29.5625 8.25C29.5625 8.5235 29.4539 8.78581 29.2605 8.9792C29.0671 9.1726 28.8048 9.28125 28.5312 9.28125H25.7812C25.5077 9.28125 25.2454 9.1726 25.052 8.9792C24.8586 8.78581 24.75 8.5235 24.75 8.25ZM5.39 13.2894C5.51226 13.5339 5.53241 13.817 5.44603 14.0764C5.35966 14.3357 5.17382 14.5502 4.92938 14.6726L2.86688 15.7039C2.74558 15.7656 2.61327 15.8027 2.47756 15.8131C2.34186 15.8234 2.20545 15.8068 2.07619 15.7642C1.94693 15.7216 1.82739 15.6538 1.72445 15.5648C1.62151 15.4758 1.53722 15.3672 1.47642 15.2455C1.41563 15.1237 1.37954 14.9911 1.37024 14.8553C1.36094 14.7195 1.3786 14.5833 1.42222 14.4543C1.46584 14.3254 1.53454 14.2064 1.62437 14.1042C1.71421 14.0019 1.82339 13.9185 1.94562 13.8586L4.00812 12.8274C4.25282 12.7052 4.53602 12.6853 4.79543 12.7719C5.05484 12.8585 5.26783 13.0447 5.39 13.2894ZM24.1739 13.2894C24.296 13.045 24.5102 12.8592 24.7693 12.7726C25.0283 12.6859 25.3112 12.7057 25.5557 12.8274L27.6182 13.8586C27.7405 13.9185 27.8497 14.0019 27.9395 14.1042C28.0293 14.2064 28.098 14.3254 28.1417 14.4543C28.1853 14.5833 28.2029 14.7195 28.1936 14.8553C28.1843 14.9911 28.1482 15.1237 28.0875 15.2455C28.0267 15.3672 27.9424 15.4758 27.8394 15.5648C27.7365 15.6538 27.6169 15.7216 27.4877 15.7642C27.3584 15.8068 27.222 15.8234 27.0863 15.8131C26.9506 15.8027 26.8183 15.7656 26.697 15.7039L24.6345 14.6726C24.3898 14.5505 24.2037 14.3361 24.117 14.0767C24.0304 13.8173 24.0517 13.5341 24.1739 13.2894Z" fill="#FF7816"/>
</svg>
