<svg width="37" height="33" viewBox="0 0 37 33" fill="none" xmlns="http://www.w3.org/2000/svg">
<path d="M20.7051 5.69238C21.6757 7.65896 23.0487 9.44577 24.7539 10.9609V10.9619C26.4397 12.4708 28.4227 13.6853 30.6006 14.5469L17.2246 26.4775C16.2868 27.3139 15.77 27.7744 15.2715 28.1436L15.0586 28.2969H15.0576C14.4618 28.7124 13.8276 29.0736 13.1543 29.3799L12.8633 29.5078C12.3701 29.7169 11.8526 29.8866 11.0176 30.1387L10.0664 30.4229L2.5127 32.6699C2.28352 32.7385 2.04121 32.7628 1.80176 32.7432L1.56348 32.709C1.28816 32.6512 1.03579 32.5349 0.827148 32.373L0.741211 32.3008C0.545694 32.1264 0.403678 31.9152 0.324219 31.6865L0.293945 31.5879C0.232579 31.3551 0.23555 31.1129 0.302734 30.8818L0.335938 30.7832V30.7822L2.85547 24.0459C3.33499 22.7629 3.56648 22.1403 3.87695 21.5576L3.87793 21.5586C4.20223 20.9534 4.58969 20.3764 5.03613 19.8359L5.23145 19.6074C5.56617 19.2246 5.94263 18.8669 6.5625 18.3086L7.27051 17.6758L20.7051 5.69238ZM29.7256 0.25C31.4804 0.25 33.1635 0.833103 34.4512 1.87305L34.7031 2.08691C36.0178 3.25954 36.75 4.84376 36.75 6.48828C36.7499 8.02992 36.106 9.5179 34.9424 10.6641L34.7031 10.8887L33.167 12.2578C31.0064 11.5945 29.0333 10.5276 27.3809 9.12891L27.0488 8.83887L27.0469 8.83789L26.7314 8.5498C25.1768 7.09117 23.9879 5.35519 23.2441 3.45703H23.2451L23.2363 3.43457L24.748 2.08691C26.0637 0.913462 27.854 0.250015 29.7256 0.25Z" fill="#FF7816" stroke="white" stroke-width="0.5"/>
</svg>
