<svg width="27" height="22" viewBox="0 0 27 22" fill="none" xmlns="http://www.w3.org/2000/svg">
<path d="M1 2.93548C1 2.42216 1.20261 1.92986 1.56326 1.56689C1.9239 1.20392 2.41305 1 2.92308 1H8.51154C9.04596 0.999981 9.56704 1.16803 10.0019 1.48065L13.1519 3.74516C13.5868 4.05778 14.1079 4.22583 14.6423 4.22581H24.0769C24.587 4.22581 25.0761 4.42972 25.4367 4.7927C25.7974 5.15567 26 5.64797 26 6.16129V19.0645C26 19.5778 25.7974 20.0701 25.4367 20.4331C25.0761 20.7961 24.587 21 24.0769 21H2.92308C2.41305 21 1.9239 20.7961 1.56326 20.4331C1.20261 20.0701 1 19.5778 1 19.0645V2.93548Z" stroke="black" stroke-linecap="round" stroke-linejoin="round"/>
<path d="M11.9433 17.7742H15.0562M16.8196 10.7929C16.8193 10.2865 16.7047 9.78669 16.4846 9.33127C16.2645 8.87585 15.9445 8.47665 15.5488 8.16376C15.1531 7.85087 14.6921 7.63246 14.2003 7.52497C13.7086 7.41748 13.199 7.42373 12.71 7.54324C11.5235 7.81872 10.5575 8.78195 10.2767 9.97485C9.93694 11.4161 10.5248 12.7523 11.5607 13.5039C11.8107 13.6845 11.9433 13.9878 11.9433 14.2974V16.0045H15.0562V14.2336C15.0562 13.9613 15.1716 13.6916 15.3933 13.5368C15.8338 13.2296 16.1936 12.8194 16.442 12.3415C16.6905 11.8636 16.82 11.3323 16.8196 10.7929Z" stroke="black" stroke-linecap="round" stroke-linejoin="round"/>
</svg>
