<svg width="25" height="25" viewBox="0 0 25 25" fill="none" xmlns="http://www.w3.org/2000/svg">
<path d="M19.2959 8.96289C19.205 9.18869 19.0799 9.41358 18.916 9.63086L18.7393 9.84473L6.51562 23.4551C5.80505 24.2462 4.96259 24.5451 4.18066 24.4951L4.02539 24.4805C3.28356 24.3886 2.56581 24.0059 1.96484 23.4297L1.71387 23.1719V23.1709C1.0693 22.453 0.617222 21.525 0.518555 20.5361L0.516602 20.5127C0.597319 21.3219 0.944006 22.1237 1.4502 22.7803L1.67676 23.0527C2.3034 23.7503 3.1425 24.2584 4.01367 24.3662C4.90742 24.4767 5.78243 24.1936 6.55273 23.3359L18.7764 9.72656C18.9624 9.51942 19.112 9.30988 19.2275 9.10059L19.2959 8.96289ZM24.2725 8.75586C24.11 9.26456 23.858 9.7517 23.5049 10.1963L23.3232 10.4121L11.4707 23.6074L11.4365 23.5684L23.3604 10.2939C23.7949 9.81 24.09 9.29256 24.2725 8.75586ZM18.2725 0.505859C18.4982 0.493327 18.7257 0.502214 18.9521 0.53125L19.1787 0.566406C20.3214 0.781323 21.4436 1.46861 22.375 2.43945L22.5586 2.6377C23.4619 3.64339 24.1372 4.88967 24.3926 6.19238L24.4385 6.4541C24.4529 6.54953 24.4642 6.64534 24.4736 6.74121L24.4414 6.48926C24.252 5.24036 23.6277 3.97813 22.7705 2.95703L22.5967 2.75684C21.6525 1.70548 20.4282 0.912201 19.1963 0.680664C18.0167 0.459055 16.8675 0.720787 15.8789 1.7002L15.6836 1.90625L1.42188 17.7842C1.04708 18.2016 0.799872 18.6393 0.65625 19.0869C0.788476 18.6464 1.00742 18.2185 1.32227 17.8271L1.45996 17.666V17.665L15.7207 1.78711C16.433 0.99413 17.2661 0.605031 18.1045 0.518555L18.2725 0.505859ZM16.2295 6.89062C17.1599 5.85481 18.246 5.92353 18.874 6.48828L18.9932 6.60742C19.1353 6.76569 19.25 6.95933 19.334 7.17578C19.278 7.06123 19.2125 6.95425 19.1387 6.85645L19.0312 6.72559C18.7343 6.39495 18.2948 6.13333 17.7539 6.15137C17.2824 6.16714 16.8175 6.393 16.3789 6.81641L16.1924 7.00977L8.41504 15.668L8.37988 15.6299L16.2295 6.89062Z" stroke="black"/>
</svg>
