<svg width="36" height="36" viewBox="0 0 36 36" fill="none" xmlns="http://www.w3.org/2000/svg">
<mask id="path-1-inside-1_3486_6715" fill="white">
<path d="M10.5885 7C10.5885 6.73478 10.7 6.48043 10.8986 6.29289C11.0972 6.10536 11.3665 6 11.6473 6H24.3532C24.634 6 24.9033 6.10536 25.1019 6.29289C25.3005 6.48043 25.412 6.73478 25.412 7C25.412 7.26522 25.3005 7.51957 25.1019 7.70711C24.9033 7.89464 24.634 8 24.3532 8H11.6473C11.3665 8 11.0972 7.89464 10.8986 7.70711C10.7 7.51957 10.5885 7.26522 10.5885 7ZM10.8765 19.73C11.2259 19.33 11.9819 19 12.7061 19C13.2678 19 13.8064 19.2107 14.2035 19.5858C14.6007 19.9609 14.8238 20.4696 14.8238 21C14.8238 21.63 14.6268 22.092 14.2859 22.4C13.9471 22.714 13.316 23 12.1767 23C11.8959 23 11.6266 23.1054 11.428 23.2929C11.2295 23.4804 11.1179 23.7348 11.1179 24C11.1179 24.2652 11.2295 24.5196 11.428 24.7071C11.6266 24.8946 11.8959 25 12.1767 25C13.316 25 13.945 25.286 14.2859 25.6C14.6247 25.908 14.8238 26.37 14.8238 27C14.8238 27.5304 14.6007 28.0391 14.2035 28.4142C13.8064 28.7893 13.2678 29 12.7061 29C11.9819 29 11.2259 28.672 10.8765 28.27C10.6979 28.0653 10.4405 27.9359 10.1609 27.9104C9.88132 27.8849 9.60246 27.9653 9.38567 28.134C9.16888 28.3027 9.03191 28.5458 9.00491 28.8098C8.9779 29.0739 9.06307 29.3373 9.24167 29.542C10.057 30.476 11.4546 31 12.7061 31C13.8294 31 14.9067 30.5786 15.7009 29.8284C16.4952 29.0783 16.9414 28.0609 16.9414 27C16.9414 25.972 16.609 24.936 15.7577 24.16L15.5713 24C15.6348 23.9493 15.697 23.896 15.7577 23.84C16.609 23.064 16.9414 22.028 16.9414 21C16.9414 19.9391 16.4952 18.9217 15.7009 18.1716C14.9067 17.4214 13.8294 17 12.7061 17C11.4567 17 10.0591 17.524 9.24167 18.458C9.15324 18.5594 9.08681 18.6762 9.04619 18.8018C9.00556 18.9275 8.99154 19.0594 9.00491 19.1902C9.01828 19.3209 9.05879 19.4479 9.12412 19.5638C9.18945 19.6798 9.27833 19.7825 9.38567 19.866C9.49301 19.9495 9.61672 20.0123 9.74974 20.0506C9.88275 20.089 10.0225 20.1022 10.1609 20.0896C10.4405 20.0641 10.6979 19.9347 10.8765 19.73ZM23.8238 30V19.664L22.2038 20.478C21.9572 20.592 21.6734 20.6111 21.4122 20.5313C21.151 20.4515 20.9329 20.279 20.8038 20.0501C20.6746 19.8213 20.6447 19.5541 20.7202 19.3048C20.7957 19.0555 20.9708 18.8437 21.2085 18.714L23.8068 17.408C23.8873 17.368 24.0017 17.31 24.1076 17.268C24.3242 17.1774 24.5625 17.1428 24.7979 17.168C24.9773 17.1905 25.1499 17.2477 25.3048 17.3362C25.4597 17.4246 25.5935 17.5424 25.6979 17.682C25.8323 17.8655 25.9127 18.0795 25.9308 18.302C25.9414 18.412 25.9414 18.534 25.9414 18.618V30C25.9414 30.2652 25.8299 30.5196 25.6313 30.7071C25.4327 30.8946 25.1634 31 24.8826 31C24.6018 31 24.3325 30.8946 24.1339 30.7071C23.9353 30.5196 23.8238 30.2652 23.8238 30Z"/>
</mask>
<path d="M10.5885 7C10.5885 6.73478 10.7 6.48043 10.8986 6.29289C11.0972 6.10536 11.3665 6 11.6473 6H24.3532C24.634 6 24.9033 6.10536 25.1019 6.29289C25.3005 6.48043 25.412 6.73478 25.412 7C25.412 7.26522 25.3005 7.51957 25.1019 7.70711C24.9033 7.89464 24.634 8 24.3532 8H11.6473C11.3665 8 11.0972 7.89464 10.8986 7.70711C10.7 7.51957 10.5885 7.26522 10.5885 7ZM10.8765 19.73C11.2259 19.33 11.9819 19 12.7061 19C13.2678 19 13.8064 19.2107 14.2035 19.5858C14.6007 19.9609 14.8238 20.4696 14.8238 21C14.8238 21.63 14.6268 22.092 14.2859 22.4C13.9471 22.714 13.316 23 12.1767 23C11.8959 23 11.6266 23.1054 11.428 23.2929C11.2295 23.4804 11.1179 23.7348 11.1179 24C11.1179 24.2652 11.2295 24.5196 11.428 24.7071C11.6266 24.8946 11.8959 25 12.1767 25C13.316 25 13.945 25.286 14.2859 25.6C14.6247 25.908 14.8238 26.37 14.8238 27C14.8238 27.5304 14.6007 28.0391 14.2035 28.4142C13.8064 28.7893 13.2678 29 12.7061 29C11.9819 29 11.2259 28.672 10.8765 28.27C10.6979 28.0653 10.4405 27.9359 10.1609 27.9104C9.88132 27.8849 9.60246 27.9653 9.38567 28.134C9.16888 28.3027 9.03191 28.5458 9.00491 28.8098C8.9779 29.0739 9.06307 29.3373 9.24167 29.542C10.057 30.476 11.4546 31 12.7061 31C13.8294 31 14.9067 30.5786 15.7009 29.8284C16.4952 29.0783 16.9414 28.0609 16.9414 27C16.9414 25.972 16.609 24.936 15.7577 24.16L15.5713 24C15.6348 23.9493 15.697 23.896 15.7577 23.84C16.609 23.064 16.9414 22.028 16.9414 21C16.9414 19.9391 16.4952 18.9217 15.7009 18.1716C14.9067 17.4214 13.8294 17 12.7061 17C11.4567 17 10.0591 17.524 9.24167 18.458C9.15324 18.5594 9.08681 18.6762 9.04619 18.8018C9.00556 18.9275 8.99154 19.0594 9.00491 19.1902C9.01828 19.3209 9.05879 19.4479 9.12412 19.5638C9.18945 19.6798 9.27833 19.7825 9.38567 19.866C9.49301 19.9495 9.61672 20.0123 9.74974 20.0506C9.88275 20.089 10.0225 20.1022 10.1609 20.0896C10.4405 20.0641 10.6979 19.9347 10.8765 19.73ZM23.8238 30V19.664L22.2038 20.478C21.9572 20.592 21.6734 20.6111 21.4122 20.5313C21.151 20.4515 20.9329 20.279 20.8038 20.0501C20.6746 19.8213 20.6447 19.5541 20.7202 19.3048C20.7957 19.0555 20.9708 18.8437 21.2085 18.714L23.8068 17.408C23.8873 17.368 24.0017 17.31 24.1076 17.268C24.3242 17.1774 24.5625 17.1428 24.7979 17.168C24.9773 17.1905 25.1499 17.2477 25.3048 17.3362C25.4597 17.4246 25.5935 17.5424 25.6979 17.682C25.8323 17.8655 25.9127 18.0795 25.9308 18.302C25.9414 18.412 25.9414 18.534 25.9414 18.618V30C25.9414 30.2652 25.8299 30.5196 25.6313 30.7071C25.4327 30.8946 25.1634 31 24.8826 31C24.6018 31 24.3325 30.8946 24.1339 30.7071C23.9353 30.5196 23.8238 30.2652 23.8238 30Z" fill="#FF7816"/>
<path d="M10.8765 19.73L8.61712 17.7564L8.61573 17.758L10.8765 19.73ZM14.2859 22.4L12.2749 20.1739L12.2607 20.1866L12.2467 20.1996L14.2859 22.4ZM14.2859 25.6L12.2536 27.8067L12.2607 27.8133L12.268 27.8199L14.2859 25.6ZM10.8765 28.27L13.1407 26.302L13.1372 26.298L10.8765 28.27ZM9.24167 29.542L6.98091 31.514L6.98159 31.5148L9.24167 29.542ZM15.7577 24.16L17.7787 21.9429L17.7457 21.9129L17.7119 21.8838L15.7577 24.16ZM15.5713 24L13.7008 21.6546L10.8667 23.9148L13.6171 26.2761L15.5713 24ZM15.7577 23.84L13.7367 21.6229L13.7301 21.6289L13.7235 21.6349L15.7577 23.84ZM9.24167 18.458L6.98413 16.4823L6.98091 16.486L9.24167 18.458ZM10.1609 20.0896L9.88836 17.102L10.1609 20.0896ZM23.8238 19.664H26.8238V14.7992L22.4769 16.9834L23.8238 19.664ZM22.2038 20.478L23.4629 23.201L23.5072 23.1805L23.5507 23.1586L22.2038 20.478ZM21.2085 18.714L19.8612 16.0335L19.816 16.0563L19.7715 16.0805L21.2085 18.714ZM23.8068 17.408L22.4715 14.7216L22.4596 14.7275L23.8068 17.408ZM24.1076 17.268L25.2137 20.0566L25.2397 20.0463L25.2655 20.0355L24.1076 17.268ZM24.7979 17.168L25.1705 14.1912L25.1436 14.1879L25.1166 14.185L24.7979 17.168ZM25.6979 17.682L28.1183 15.9095L28.1095 15.8975L28.1006 15.8856L25.6979 17.682ZM25.9308 18.302L22.9408 18.5458L22.9425 18.5676L22.9446 18.5894L25.9308 18.302ZM13.5885 7C13.5885 7.58755 13.3398 8.11382 12.9585 8.47393L8.83874 4.11185C8.06031 4.84704 7.58849 5.88201 7.58849 7H13.5885ZM12.9585 8.47393C12.583 8.82855 12.1086 9 11.6473 9V3C10.6244 3 9.61135 3.38217 8.83874 4.11185L12.9585 8.47393ZM11.6473 9H24.3532V3H11.6473V9ZM24.3532 9C23.8919 9 23.4175 8.82855 23.042 8.47393L27.1618 4.11185C26.3892 3.38217 25.3761 3 24.3532 3V9ZM23.042 8.47393C22.6607 8.11382 22.412 7.58755 22.412 7H28.412C28.412 5.88201 27.9402 4.84704 27.1618 4.11185L23.042 8.47393ZM22.412 7C22.412 6.41245 22.6607 5.88618 23.042 5.52607L27.1618 9.88815C27.9402 9.15296 28.412 8.11799 28.412 7H22.412ZM23.042 5.52607C23.4175 5.17145 23.8919 5 24.3532 5V11C25.3761 11 26.3892 10.6178 27.1618 9.88815L23.042 5.52607ZM24.3532 5H11.6473V11H24.3532V5ZM11.6473 5C12.1086 5 12.583 5.17145 12.9585 5.52607L8.83874 9.88815C9.61135 10.6178 10.6244 11 11.6473 11V5ZM12.9585 5.52607C13.3398 5.88618 13.5885 6.41245 13.5885 7H7.58849C7.58849 8.11799 8.06031 9.15296 8.83874 9.88815L12.9585 5.52607ZM13.1359 21.7036C13.0127 21.8447 12.9096 21.9184 12.8672 21.9465C12.8198 21.978 12.7927 21.9892 12.7887 21.9908C12.7833 21.993 12.781 21.9936 12.7768 21.9945C12.7729 21.9953 12.75 22 12.7061 22V16C11.9093 16 11.1536 16.1765 10.5128 16.4392C9.90085 16.6901 9.18553 17.1057 8.61712 17.7564L13.1359 21.7036ZM12.7061 22C12.5257 22 12.3206 21.9339 12.1437 21.7668L16.2634 17.4047C15.2922 16.4875 14.0099 16 12.7061 16V22ZM12.1437 21.7668C11.961 21.5943 11.8238 21.3223 11.8238 21H17.8238C17.8238 19.6168 17.2404 18.3275 16.2634 17.4047L12.1437 21.7668ZM11.8238 21C11.8238 21.0044 11.8232 20.8942 11.8921 20.7195C11.9653 20.5342 12.0929 20.3383 12.2749 20.1739L16.297 24.6261C17.398 23.6315 17.8238 22.2852 17.8238 21H11.8238ZM12.2467 20.1996C12.3372 20.1157 12.4217 20.0577 12.4889 20.0194C12.5556 19.9814 12.5994 19.9662 12.6085 19.9632C12.6231 19.9586 12.5016 20 12.1767 20V26C13.7901 26 15.2545 25.5925 16.3251 24.6004L12.2467 20.1996ZM12.1767 20C11.1538 20 10.1408 20.3822 9.36816 21.1119L13.4879 25.4739C13.1124 25.8286 12.638 26 12.1767 26V20ZM9.36816 21.1119C8.58972 21.847 8.1179 22.882 8.1179 24H14.1179C14.1179 24.5876 13.8692 25.1138 13.4879 25.4739L9.36816 21.1119ZM8.1179 24C8.1179 25.118 8.58972 26.153 9.36816 26.8881L13.4879 22.5261C13.8692 22.8862 14.1179 23.4124 14.1179 24H8.1179ZM9.36816 26.8881C10.1408 27.6178 11.1538 28 12.1767 28V22C12.638 22 13.1124 22.1714 13.4879 22.5261L9.36816 26.8881ZM12.1767 28C12.5014 28 12.6221 28.0414 12.6071 28.0365C12.5977 28.0335 12.5545 28.0185 12.4889 27.9812C12.4227 27.9435 12.3408 27.8871 12.2536 27.8067L16.3182 23.3933C15.2507 22.4101 13.7957 22 12.1767 22V28ZM12.268 27.8199C12.0901 27.6582 11.9647 27.466 11.8924 27.2833C11.8585 27.1976 11.8411 27.1264 11.8324 27.0766C11.8238 27.0273 11.8238 27.0001 11.8238 27H17.8238C17.8238 25.7059 17.3907 24.3681 16.3038 23.3801L12.268 27.8199ZM11.8238 27C11.8238 26.6777 11.9609 26.4057 12.1437 26.2332L16.2634 30.5953C17.2404 29.6725 17.8238 28.3832 17.8238 27H11.8238ZM12.1437 26.2332C12.3206 26.0661 12.5257 26 12.7061 26V32C14.0098 32 15.2922 31.5125 16.2634 30.5953L12.1437 26.2332ZM12.7061 26C12.7487 26 12.7707 26.0045 12.7743 26.0052C12.7783 26.0061 12.7808 26.0067 12.7869 26.0092C12.7915 26.0111 12.8197 26.0227 12.8685 26.0551C12.9122 26.0842 13.0167 26.1592 13.1407 26.302L8.61225 30.238C9.18265 30.8943 9.90144 31.3114 10.5146 31.5623C11.1569 31.8251 11.9119 32 12.7061 32V26ZM13.1372 26.298C12.4328 25.4904 11.4533 25.0158 10.4334 24.9228L9.88836 30.898C9.42763 30.856 8.96298 30.6401 8.61573 30.242L13.1372 26.298ZM10.4334 24.9228C9.41438 24.8298 8.37553 25.1188 7.54342 25.7663L11.2279 30.5017C10.8294 30.8118 10.3483 30.9399 9.88836 30.898L10.4334 24.9228ZM7.54342 25.7663C6.70574 26.418 6.134 27.3946 6.02048 28.5046L11.9893 29.1151C11.9298 29.697 11.632 30.1873 11.2279 30.5017L7.54342 25.7663ZM6.02048 28.5046C5.9067 29.6171 6.27075 30.6999 6.98091 31.514L11.5024 27.57C11.8554 27.9746 12.0491 28.5307 11.9893 29.1151L6.02048 28.5046ZM6.98159 31.5148C8.47574 33.2265 10.7693 34 12.7061 34V28C12.1399 28 11.6382 27.7255 11.5017 27.5692L6.98159 31.5148ZM12.7061 34C14.5715 34 16.3925 33.3018 17.7608 32.0095L13.6411 27.6474C13.4208 27.8554 13.0873 28 12.7061 28V34ZM17.7608 32.0095C19.1349 30.7117 19.9414 28.9136 19.9414 27H13.9414C13.9414 27.2081 13.8555 27.4449 13.6411 27.6474L17.7608 32.0095ZM19.9414 27C19.9414 25.325 19.3855 23.4076 17.7787 21.9429L13.7367 26.3771C13.8039 26.4384 13.8442 26.4999 13.8749 26.5784C13.9096 26.6671 13.9414 26.8053 13.9414 27H19.9414ZM17.7119 21.8838L17.5256 21.7238L13.6171 26.2761L13.8034 26.4361L17.7119 21.8838ZM17.4419 26.3454C17.5625 26.2492 17.6791 26.149 17.7918 26.0451L13.7235 21.6349C13.7148 21.643 13.7072 21.6494 13.7008 21.6546L17.4419 26.3454ZM17.7787 26.0571C19.3855 24.5924 19.9414 22.675 19.9414 21H13.9414C13.9414 21.1947 13.9096 21.3329 13.8749 21.4216C13.8442 21.5001 13.8039 21.5616 13.7367 21.6229L17.7787 26.0571ZM19.9414 21C19.9414 19.0864 19.1349 17.2883 17.7608 15.9905L13.6411 20.3526C13.8555 20.5551 13.9414 20.7919 13.9414 21H19.9414ZM17.7608 15.9905C16.3925 14.6982 14.5715 14 12.7061 14V20C13.0873 20 13.4208 20.1446 13.6411 20.3526L17.7608 15.9905ZM12.7061 14C10.7697 14 8.47877 14.7744 6.98413 16.4823L11.4992 20.4337C11.6394 20.2736 12.1438 20 12.7061 20V14ZM6.98091 16.486C6.63084 16.8873 6.35965 17.3595 6.19172 17.8788L11.9007 19.7249C11.814 19.9929 11.6756 20.2315 11.5024 20.43L6.98091 16.486ZM6.19172 17.8788C6.02365 18.3985 5.96456 18.9487 6.02048 19.4954L11.9893 18.8849C12.0185 19.1702 11.9875 19.4564 11.9007 19.7249L6.19172 17.8788ZM6.02048 19.4954C6.07637 20.0419 6.24518 20.5657 6.51039 21.0364L11.7378 18.0913C11.8724 18.3301 11.9602 18.5999 11.9893 18.8849L6.02048 19.4954ZM6.51039 21.0364C6.77533 21.5067 7.12916 21.9114 7.54342 22.2337L11.2279 17.4983C11.4275 17.6536 11.6036 17.853 11.7378 18.0913L6.51039 21.0364ZM7.54342 22.2337C7.95736 22.5558 8.42539 22.7909 8.91832 22.9331L10.5812 17.1681C10.8081 17.2336 11.0287 17.3432 11.2279 17.4983L7.54342 22.2337ZM8.91832 22.9331C9.41109 23.0752 9.92525 23.1236 10.4334 23.0772L9.88836 17.102C10.1197 17.0809 10.3544 17.1027 10.5812 17.1681L8.91832 22.9331ZM10.4334 23.0772C11.4533 22.9842 12.4328 22.5096 13.1372 21.702L8.61573 17.758C8.96298 17.3599 9.42763 17.144 9.88836 17.102L10.4334 23.0772ZM26.8238 30V19.664H20.8238V30H26.8238ZM22.4769 16.9834L20.8569 17.7974L23.5507 23.1586L25.1707 22.3446L22.4769 16.9834ZM20.9446 17.755C21.3719 17.5575 21.8487 17.5277 22.289 17.6623L20.5354 23.4003C21.4981 23.6945 22.5426 23.6266 23.4629 23.201L20.9446 17.755ZM22.289 17.6623C22.7317 17.7976 23.1511 18.1055 23.4166 18.5759L18.191 21.5244C18.7146 22.4524 19.5703 23.1054 20.5354 23.4003L22.289 17.6623ZM23.4166 18.5759C23.6859 19.0534 23.7556 19.6323 23.5914 20.1745L17.849 18.4351C17.5338 19.4759 17.6634 20.5893 18.191 21.5244L23.4166 18.5759ZM23.5914 20.1745C23.4288 20.7112 23.0682 21.1168 22.6455 21.3475L19.7715 16.0805C18.8734 16.5706 18.1626 17.3999 17.849 18.4351L23.5914 20.1745ZM22.5558 21.3945L25.1541 20.0885L22.4596 14.7275L19.8612 16.0335L22.5558 21.3945ZM25.1422 20.0944C25.1536 20.0887 25.1672 20.082 25.176 20.0776C25.1862 20.0725 25.1948 20.0682 25.203 20.0642C25.2195 20.056 25.2308 20.0505 25.2394 20.0464C25.248 20.0423 25.2504 20.0413 25.248 20.0424C25.246 20.0432 25.234 20.0486 25.2137 20.0566L23.0014 14.4794C22.7515 14.5785 22.5068 14.704 22.4715 14.7216L25.1422 20.0944ZM25.2655 20.0355C25.0119 20.1416 24.7419 20.1791 24.4792 20.151L25.1166 14.185C24.383 14.1066 23.6365 14.2131 22.9496 14.5005L25.2655 20.0355ZM24.4253 20.1448C24.2177 20.1188 24.0105 20.0518 23.817 19.9413L26.7926 14.7311C26.2893 14.4436 25.737 14.2621 25.1705 14.1912L24.4253 20.1448ZM23.817 19.9413C23.6231 19.8305 23.4429 19.6759 23.2952 19.4784L28.1006 15.8856C27.7441 15.4088 27.2962 15.0187 26.7926 14.7311L23.817 19.9413ZM23.2775 19.4545C23.0911 19.1999 22.9686 18.8867 22.9408 18.5458L28.9209 18.0582C28.8568 17.2723 28.5736 16.5312 28.1183 15.9095L23.2775 19.4545ZM22.9446 18.5894C22.9435 18.577 22.9427 18.5671 22.9421 18.5599C22.9416 18.5526 22.9413 18.5473 22.9411 18.544C22.9408 18.538 22.9409 18.537 22.941 18.5422C22.9411 18.5473 22.9412 18.5556 22.9413 18.5685C22.9414 18.5822 22.9414 18.5961 22.9414 18.618H28.9414C28.9414 18.557 28.9437 18.2915 28.917 18.0146L22.9446 18.5894ZM22.9414 18.618V30H28.9414V18.618H22.9414ZM22.9414 30C22.9414 29.4125 23.1901 28.8862 23.5714 28.5261L27.6912 32.8881C28.4696 32.153 28.9414 31.118 28.9414 30H22.9414ZM23.5714 28.5261C23.9469 28.1714 24.4214 28 24.8826 28V34C25.9055 34 26.9186 33.6178 27.6912 32.8881L23.5714 28.5261ZM24.8826 28C25.3439 28 25.8183 28.1714 26.1938 28.5261L22.074 32.8881C22.8467 33.6178 23.8597 34 24.8826 34V28ZM26.1938 28.5261C26.5751 28.8862 26.8238 29.4124 26.8238 30H20.8238C20.8238 31.118 21.2956 32.153 22.074 32.8881L26.1938 28.5261Z" fill="#FF7816" mask="url(#path-1-inside-1_3486_6715)"/>
<mask id="path-3-inside-2_3486_6715" fill="white">
<path d="M21.4369 0H14.5631C12.2336 0 10.4167 -1.49012e-08 8.96188 0.112C7.48376 0.226 6.28306 0.462 5.20306 0.98C3.40951 1.84294 1.95135 3.22009 1.03765 4.914C0.487059 5.934 0.239294 7.068 0.118588 8.464C-1.57777e-08 9.84 0 11.552 0 13.754V22.246C0 24.446 -1.57777e-08 26.162 0.118588 27.536C0.239294 28.932 0.489177 30.066 1.03765 31.086C1.95135 32.7799 3.40951 34.1571 5.20306 35.02C6.28306 35.54 7.48376 35.774 8.96188 35.888C10.4188 36 12.2315 36 14.5631 36H21.4369C23.7664 36 25.5833 36 27.0381 35.888C28.5162 35.774 29.7169 35.538 30.7969 35.02C32.5905 34.1571 34.0487 32.7799 34.9624 31.086C35.5129 30.066 35.7607 28.932 35.8814 27.536C36 26.162 36 24.448 36 22.246V13.754C36 11.554 36 9.838 35.8814 8.464C35.7607 7.068 35.5108 5.934 34.9624 4.914C34.0487 3.22009 32.5905 1.84294 30.7969 0.98C29.7169 0.46 28.5162 0.226 27.0381 0.112C25.5812 -1.49012e-08 23.7685 0 21.4369 0ZM6.16235 2.762C6.89506 2.41 7.78447 2.21 9.13341 2.106C10.4929 2 12.2231 2 14.6118 2H21.3882C23.7769 2 25.5071 2 26.8645 2.106C28.2134 2.21 29.1028 2.41 29.8355 2.762C31.2306 3.43319 32.3649 4.5044 33.0755 5.822C33.4482 6.514 33.66 7.354 33.7701 8.628C33.8506 9.542 33.8739 10.632 33.8802 12H2.11765C2.12612 10.632 2.14729 9.54 2.22776 8.628C2.33788 7.354 2.54965 6.514 2.92235 5.822C3.63303 4.5044 4.76725 3.43319 6.16235 2.762ZM2.11765 14H33.8824V22.2C33.8824 24.456 33.8824 26.09 33.7701 27.372C33.66 28.646 33.4482 29.486 33.0755 30.178C32.3649 31.4956 31.2306 32.5668 29.8355 33.238C29.1028 33.59 28.2134 33.79 26.8666 33.894C25.5071 34 23.7769 34 21.3882 34H14.6118C12.2231 34 10.4929 34 9.13553 33.894C7.78659 33.79 6.89718 33.59 6.16447 33.238C4.76936 32.5668 3.63515 31.4956 2.92447 30.178C2.55176 29.486 2.34 28.646 2.22988 27.374C2.11765 26.09 2.11765 24.456 2.11765 22.2V14Z"/>
</mask>
<path d="M21.4369 0H14.5631C12.2336 0 10.4167 -1.49012e-08 8.96188 0.112C7.48376 0.226 6.28306 0.462 5.20306 0.98C3.40951 1.84294 1.95135 3.22009 1.03765 4.914C0.487059 5.934 0.239294 7.068 0.118588 8.464C-1.57777e-08 9.84 0 11.552 0 13.754V22.246C0 24.446 -1.57777e-08 26.162 0.118588 27.536C0.239294 28.932 0.489177 30.066 1.03765 31.086C1.95135 32.7799 3.40951 34.1571 5.20306 35.02C6.28306 35.54 7.48376 35.774 8.96188 35.888C10.4188 36 12.2315 36 14.5631 36H21.4369C23.7664 36 25.5833 36 27.0381 35.888C28.5162 35.774 29.7169 35.538 30.7969 35.02C32.5905 34.1571 34.0487 32.7799 34.9624 31.086C35.5129 30.066 35.7607 28.932 35.8814 27.536C36 26.162 36 24.448 36 22.246V13.754C36 11.554 36 9.838 35.8814 8.464C35.7607 7.068 35.5108 5.934 34.9624 4.914C34.0487 3.22009 32.5905 1.84294 30.7969 0.98C29.7169 0.46 28.5162 0.226 27.0381 0.112C25.5812 -1.49012e-08 23.7685 0 21.4369 0ZM6.16235 2.762C6.89506 2.41 7.78447 2.21 9.13341 2.106C10.4929 2 12.2231 2 14.6118 2H21.3882C23.7769 2 25.5071 2 26.8645 2.106C28.2134 2.21 29.1028 2.41 29.8355 2.762C31.2306 3.43319 32.3649 4.5044 33.0755 5.822C33.4482 6.514 33.66 7.354 33.7701 8.628C33.8506 9.542 33.8739 10.632 33.8802 12H2.11765C2.12612 10.632 2.14729 9.54 2.22776 8.628C2.33788 7.354 2.54965 6.514 2.92235 5.822C3.63303 4.5044 4.76725 3.43319 6.16235 2.762ZM2.11765 14H33.8824V22.2C33.8824 24.456 33.8824 26.09 33.7701 27.372C33.66 28.646 33.4482 29.486 33.0755 30.178C32.3649 31.4956 31.2306 32.5668 29.8355 33.238C29.1028 33.59 28.2134 33.79 26.8666 33.894C25.5071 34 23.7769 34 21.3882 34H14.6118C12.2231 34 10.4929 34 9.13553 33.894C7.78659 33.79 6.89718 33.59 6.16447 33.238C4.76936 32.5668 3.63515 31.4956 2.92447 30.178C2.55176 29.486 2.34 28.646 2.22988 27.374C2.11765 26.09 2.11765 24.456 2.11765 22.2V14Z" fill="#FF7816"/>
<path d="M8.96188 0.112L8.73161 -2.87915L8.73119 -2.87912L8.96188 0.112ZM5.20306 0.98L3.90568 -1.72496L3.90237 -1.72337L5.20306 0.98ZM1.03765 4.914L3.67759 6.33902L3.67802 6.33823L1.03765 4.914ZM0.118588 8.464L-2.87026 8.20557L-2.87033 8.2064L0.118588 8.464ZM0.118588 27.536L-2.8703 27.794L-2.87026 27.7944L0.118588 27.536ZM1.03765 31.086L-1.60459 32.5068L-1.60273 32.5102L1.03765 31.086ZM5.20306 35.02L6.50451 32.317L6.50374 32.3166L5.20306 35.02ZM8.96188 35.888L8.73119 38.8791L8.73194 38.8792L8.96188 35.888ZM27.0381 35.888L27.2684 38.8792L27.2688 38.8791L27.0381 35.888ZM30.7969 35.02L32.0943 37.725L32.0976 37.7234L30.7969 35.02ZM34.9624 31.086L32.3224 29.661L32.322 29.6618L34.9624 31.086ZM35.8814 27.536L38.8703 27.7944L38.8703 27.794L35.8814 27.536ZM35.8814 8.464L38.8703 8.20603L38.8703 8.20557L35.8814 8.464ZM34.9624 4.914L37.6046 3.49323L37.6027 3.48977L34.9624 4.914ZM30.7969 0.98L29.4955 3.68301L29.4963 3.68337L30.7969 0.98ZM27.0381 0.112L27.2688 -2.87912L27.2681 -2.87917L27.0381 0.112ZM6.16235 2.762L4.86326 0.0578642L4.86173 0.0585987L6.16235 2.762ZM9.13341 2.106L9.36402 5.09712L9.36661 5.09692L9.13341 2.106ZM26.8645 2.106L26.6309 5.0969L26.6339 5.09712L26.8645 2.106ZM29.8355 2.762L31.1362 0.0585983L31.1346 0.0578647L29.8355 2.762ZM33.0755 5.822L35.7168 4.39943L35.7159 4.39784L33.0755 5.822ZM33.7701 8.628L30.7813 8.88634L30.7817 8.89111L33.7701 8.628ZM33.8802 12V15H36.8942L36.8802 11.9861L33.8802 12ZM2.11765 12L-0.882295 11.9814L-0.900986 15H2.11765V12ZM2.22776 8.628L5.21616 8.89168L5.21662 8.88634L2.22776 8.628ZM2.92235 5.822L0.281944 4.39784L0.281084 4.39943L2.92235 5.822ZM2.11765 14V11H-0.882353V14H2.11765ZM33.8824 14H36.8824V11H33.8824V14ZM33.7701 27.372L30.7815 27.1104L30.7813 27.1137L33.7701 27.372ZM33.0755 30.178L35.7159 31.6022L35.7168 31.6006L33.0755 30.178ZM29.8355 33.238L31.1346 35.9421L31.1362 35.9414L29.8355 33.238ZM26.8666 33.894L26.6356 30.9029L26.6334 30.9031L26.8666 33.894ZM9.13553 33.894L9.36909 30.9031L9.36614 30.9029L9.13553 33.894ZM6.16447 33.238L4.86385 35.9414L4.86537 35.9421L6.16447 33.238ZM2.92447 30.178L0.283201 31.6006L0.284061 31.6022L2.92447 30.178ZM2.22988 27.374L5.2187 27.1153L5.21849 27.1128L2.22988 27.374ZM21.4369 -3H14.5631V3H21.4369V-3ZM14.5631 -3C12.2785 -3 10.3279 -3.00204 8.73161 -2.87915L9.19216 3.10315C10.5055 3.00204 12.1888 3 14.5631 3V-3ZM8.73119 -2.87912C7.07764 -2.75159 5.46027 -2.47059 3.90568 -1.72496L6.50044 3.68496C7.10584 3.39459 7.88989 3.20359 9.19257 3.10312L8.73119 -2.87912ZM3.90237 -1.72337C1.55934 -0.596056 -0.377783 1.21885 -1.60273 3.48977L3.67802 6.33823C4.28048 5.22134 5.25968 4.28193 6.50374 3.68337L3.90237 -1.72337ZM-1.6023 3.48898C-2.42775 5.01817 -2.7324 6.61121 -2.87026 8.20557L3.10744 8.72243C3.21099 7.52479 3.40186 6.84983 3.67759 6.33902L-1.6023 3.48898ZM-2.87033 8.2064C-3.00255 9.74051 -3 11.6019 -3 13.754H3C3 11.5021 3.00255 9.93949 3.10751 8.72159L-2.87033 8.2064ZM-3 13.754V22.246H3V13.754H-3ZM-3 22.246C-3 24.3958 -3.00256 26.2616 -2.8703 27.794L3.10748 27.278C3.00256 26.0624 3 24.4962 3 22.246H-3ZM-2.87026 27.7944C-2.73202 29.3932 -2.42442 30.9821 -1.60459 32.5068L3.67988 29.6652C3.40278 29.1499 3.21061 28.4708 3.10744 27.2776L-2.87026 27.7944ZM-1.60273 32.5102C-0.377784 34.7812 1.55934 36.5961 3.90237 37.7234L6.50374 32.3166C5.25968 31.7181 4.28048 30.7787 3.67802 29.6618L-1.60273 32.5102ZM3.90161 37.723C5.46052 38.4736 7.08175 38.7519 8.73119 38.8791L9.19257 32.8969C7.88578 32.7961 7.1056 32.6064 6.50451 32.317L3.90161 37.723ZM8.73194 38.8792C10.3301 39.002 12.2761 39 14.5631 39V33C12.187 33 10.5076 32.998 9.19182 32.8968L8.73194 38.8792ZM14.5631 39H21.4369V33H14.5631V39ZM21.4369 39C23.7215 39 25.6721 39.002 27.2684 38.8792L26.8078 32.8969C25.4945 32.998 23.8112 33 21.4369 33V39ZM27.2688 38.8791C28.9224 38.7516 30.5397 38.4706 32.0943 37.725L29.4996 32.315C28.8942 32.6054 28.1101 32.7964 26.8074 32.8969L27.2688 38.8791ZM32.0976 37.7234C34.4407 36.5961 36.3778 34.7812 37.6027 32.5102L32.322 29.6618C31.7195 30.7787 30.7403 31.7181 29.4963 32.3166L32.0976 37.7234ZM37.6023 32.511C38.4277 30.9818 38.7324 29.3888 38.8703 27.7944L32.8926 27.2776C32.789 28.4752 32.5981 29.1502 32.3224 29.661L37.6023 32.511ZM38.8703 27.794C39.0026 26.2616 39 24.3979 39 22.246H33C33 24.4981 32.9974 26.0624 32.8925 27.278L38.8703 27.794ZM39 22.246V13.754H33V22.246H39ZM39 13.754C39 11.6042 39.0026 9.73842 38.8703 8.20603L32.8925 8.72197C32.9974 9.93758 33 11.5038 33 13.754H39ZM38.8703 8.20557C38.732 6.60677 38.4244 5.01789 37.6046 3.49323L32.3201 6.33477C32.5972 6.85011 32.7894 7.52923 32.8926 8.72243L38.8703 8.20557ZM37.6027 3.48977C36.3778 1.21885 34.4407 -0.596057 32.0976 -1.72337L29.4963 3.68337C30.7403 4.28193 31.7195 5.22134 32.322 6.33823L37.6027 3.48977ZM32.0984 -1.72301C30.5395 -2.47359 28.9183 -2.7519 27.2688 -2.87912L26.8074 3.10312C28.1142 3.2039 28.8944 3.39359 29.4955 3.68301L32.0984 -1.72301ZM27.2681 -2.87917C25.6699 -3.00203 23.7239 -3 21.4369 -3V3C23.813 3 25.4924 3.00203 26.8082 3.10317L27.2681 -2.87917ZM7.46145 5.46614C7.71588 5.3439 8.18556 5.18798 9.36402 5.09712L8.9028 -0.885124C7.38338 -0.76798 6.07423 -0.523902 4.86326 0.0578647L7.46145 5.46614ZM9.36661 5.09692C10.582 5.00216 12.1739 5 14.6118 5V-1C12.2722 -1 10.4039 -1.00216 8.90022 -0.884923L9.36661 5.09692ZM14.6118 5H21.3882V-1H14.6118V5ZM21.3882 5C23.8263 5 25.4179 5.00217 26.6309 5.09689L27.098 -0.884895C25.5962 -1.00217 23.7276 -1 21.3882 -1V5ZM26.6339 5.09712C27.8123 5.18798 28.282 5.3439 28.5364 5.46614L31.1346 0.0578647C29.9237 -0.523902 28.6145 -0.76798 27.0951 -0.885124L26.6339 5.09712ZM28.5349 5.4654C29.3805 5.87221 30.0357 6.50563 30.4351 7.24616L35.7159 4.39784C34.694 2.50317 33.0808 0.994178 31.1362 0.0585987L28.5349 5.4654ZM30.4343 7.24457C30.533 7.42795 30.6882 7.80972 30.7813 8.88634L36.759 8.36966C36.6318 6.89828 36.3634 5.60005 35.7168 4.39943L30.4343 7.24457ZM30.7817 8.89111C30.8502 9.66988 30.8739 10.6509 30.8803 12.0139L36.8802 11.9861C36.8738 10.6131 36.8509 9.41412 36.7586 8.36489L30.7817 8.89111ZM33.8802 9H2.11765V15H33.8802V9ZM5.11759 12.0186C5.12609 10.6462 5.14776 9.66686 5.21615 8.89168L-0.760625 8.36432C-0.853168 9.41314 -0.873852 10.6178 -0.882295 11.9814L5.11759 12.0186ZM5.21662 8.88634C5.30968 7.80972 5.46486 7.42795 5.56362 7.24457L0.281084 4.39943C-0.36556 5.60005 -0.633913 6.89828 -0.761091 8.36966L5.21662 8.88634ZM5.56276 7.24616C5.96218 6.50563 6.6174 5.87221 7.46298 5.4654L4.86173 0.0585987C2.91709 0.994177 1.30388 2.50317 0.281944 4.39784L5.56276 7.24616ZM2.11765 17H33.8824V11H2.11765V17ZM30.8824 14V22.2H36.8824V14H30.8824ZM30.8824 22.2C30.8824 24.5113 30.8796 25.99 30.7816 27.1104L36.7587 27.6336C36.8851 26.19 36.8824 24.4007 36.8824 22.2H30.8824ZM30.7813 27.1137C30.6882 28.1903 30.533 28.5721 30.4343 28.7554L35.7168 31.6006C36.3634 30.4 36.6318 29.1017 36.759 27.6303L30.7813 27.1137ZM30.4351 28.7538C30.0357 29.4944 29.3805 30.1278 28.5349 30.5346L31.1362 35.9414C33.0808 35.0058 34.694 33.4968 35.7159 31.6022L30.4351 28.7538ZM28.5364 30.5339C28.2817 30.6562 27.8118 30.8121 26.6356 30.9029L27.0976 36.8851C28.615 36.7679 29.9239 36.5238 31.1346 35.9421L28.5364 30.5339ZM26.6334 30.9031C25.418 30.9978 23.8261 31 21.3882 31V37C23.7278 37 25.5961 37.0022 27.0998 36.8849L26.6334 30.9031ZM21.3882 31H14.6118V37H21.3882V31ZM14.6118 31C12.1737 31 10.5821 30.9978 9.36909 30.9031L8.90197 36.8849C10.4038 37.0022 12.2724 37 14.6118 37V31ZM9.36614 30.9029C8.18768 30.812 7.718 30.6561 7.46357 30.5339L4.86537 35.9421C6.07635 36.5239 7.3855 36.768 8.90492 36.8851L9.36614 30.9029ZM7.46509 30.5346C6.61952 30.1278 5.9643 29.4944 5.56488 28.7538L0.284061 31.6022C1.30599 33.4968 2.91921 35.0058 4.86385 35.9414L7.46509 30.5346ZM5.56574 28.7554C5.46681 28.5718 5.31172 28.1897 5.2187 27.1153L-0.758939 27.6327C-0.63172 29.1023 -0.363282 30.4002 0.283202 31.6006L5.56574 28.7554ZM5.21849 27.1128C5.12036 25.9902 5.11765 24.5111 5.11765 22.2H-0.882353C-0.882353 24.4009 -0.885065 26.1898 -0.758722 27.6352L5.21849 27.1128ZM5.11765 22.2V14H-0.882353V22.2H5.11765Z" fill="#FF7816" mask="url(#path-3-inside-2_3486_6715)"/>
</svg>
