<svg width="25" height="25" viewBox="0 0 25 25" fill="none" xmlns="http://www.w3.org/2000/svg">
<path d="M24.5 12.5C24.5 12.7354 24.4586 12.97 24.377 13.1953L24.2822 13.417C24.1397 13.7044 23.828 14.011 23.1777 14.4229C22.8557 14.6268 22.4699 14.8452 22.0098 15.0928L20.3955 15.9375L7.27051 22.7314C6.03215 23.3728 5.13119 23.8385 4.41406 24.1348C3.78603 24.3942 3.34827 24.5013 2.99219 24.5L2.84375 24.4932C2.47088 24.4577 2.11248 24.3526 1.79199 24.1865C1.55147 24.0619 1.33676 23.9054 1.15527 23.7246L0.985352 23.5361V23.5352C0.77938 23.2814 0.643609 22.8976 0.572266 22.2012C0.500901 21.5043 0.5 20.5803 0.5 19.2969V5.70605C0.5 4.42116 0.500882 3.49622 0.572266 2.79883C0.6347 2.18889 0.745946 1.81812 0.911133 1.56445L0.985352 1.46289C1.19734 1.2015 1.47145 0.979396 1.79199 0.813477C2.03247 0.689008 2.29419 0.599044 2.56738 0.546875L2.84375 0.506836C3.22673 0.470753 3.69602 0.568647 4.41406 0.865234C4.7726 1.01334 5.17694 1.20394 5.64648 1.4375L7.27051 2.26855L20.3984 9.06348C21.6357 9.70441 22.5349 10.1703 23.1787 10.5781C23.7477 10.9386 24.0569 11.2182 24.2207 11.4746L24.2822 11.583C24.4267 11.8739 24.5 12.1862 24.5 12.5Z" stroke="black" stroke-linecap="round" stroke-linejoin="round"/>
</svg>
