<svg width="54" height="54" viewBox="0 0 54 54" fill="none" xmlns="http://www.w3.org/2000/svg">
<path d="M29.1478 1.78822C28.6922 2.19322 25.1484 9.22587 25.1484 9.22587L22.5117 19.8613L32.7717 18.9206C32.7717 18.9206 41.3062 3.04962 41.4792 2.68259C41.7872 2.01603 41.9517 1.74181 40.7747 1.74181C39.5977 1.73759 29.5739 1.40853 29.1478 1.78822Z" fill="#176CC7"/>
<path d="M34.4596 18.2635C33.9492 17.9893 18.9135 17.7531 18.5592 18.2635C18.2385 18.7276 18.285 20.8496 18.441 21.1239C18.5971 21.3981 23.6512 23.7479 23.6512 23.7479L23.647 24.6043C23.647 24.6043 23.9254 25.2751 26.7435 25.2751C29.5617 25.2751 29.8528 24.7056 29.8528 24.7056L29.8781 23.8407C29.8781 23.8407 34.3035 21.6301 34.5356 21.436C34.7718 21.2378 34.9701 18.5378 34.4596 18.2635ZM29.8274 21.7778C29.8274 21.7778 29.8148 21.1871 29.5237 21.0395C29.2326 20.8918 24.5456 20.9171 24.149 20.9382C23.7525 20.9593 23.7525 21.6681 23.7525 21.6681L20.5462 20.1071V19.7949L32.4853 19.8793L32.5064 20.2337L29.8274 21.7778Z" fill="#FCC417"/>
<path d="M24.9994 21.5879C24.6028 21.5879 24.375 22.0013 24.375 22.7143C24.375 23.3809 24.6028 23.942 25.1048 23.8998C25.5183 23.866 25.6617 23.2332 25.6238 22.6721C25.5858 22.0055 25.5014 21.5879 24.9994 21.5879Z" fill="#FDFFFF"/>
<path d="M12.2266 38.2722C12.2266 48.3803 21.3644 52.8817 27.4394 52.6665C34.1388 52.4261 42.1628 47.2033 41.6777 37.5592C41.2178 28.4214 33.5312 24.0887 26.8741 24.1351C19.1369 24.19 12.2266 29.4423 12.2266 38.2722Z" fill="#FCC417"/>
<path d="M27.2238 50.9085C27.1183 50.9085 27.0086 50.9085 26.9031 50.9043C23.7391 50.7988 20.613 49.4657 18.3264 47.2509C15.8795 44.8799 14.538 41.6737 14.5548 38.227C14.5928 29.8105 21.9503 25.9082 26.9411 25.9082H26.9833C33.7459 25.9377 39.2978 31.1943 39.4539 38.3198C39.5214 41.4923 38.222 44.8209 35.6739 47.3268C33.2945 49.6598 30.1389 50.9085 27.2238 50.9085ZM26.9327 27.3088C22.4566 27.3088 15.8373 30.9707 15.8205 38.227C15.8078 43.6523 20.0097 49.2295 27.0086 49.4657C29.6748 49.5501 32.4213 48.5291 34.6403 46.348C36.9438 44.0826 38.2389 41.1632 38.1925 38.3366C38.0913 32.2068 33.0794 27.3299 26.9959 27.3046C26.9791 27.3046 26.9453 27.3088 26.9327 27.3088Z" fill="#FA912C"/>
<path d="M24.3945 25.5707C24.1034 25.1699 20.8043 25.2459 17.6867 28.2918C14.6787 31.2323 14.3539 34.004 14.9318 34.1643C15.5857 34.3457 16.3831 31.4095 19.1379 28.9415C21.6692 26.6802 24.9767 26.3681 24.3945 25.5707ZM37.1562 36.4846C36.1395 36.6281 37.1942 39.674 34.8359 43.0827C32.7898 46.0401 30.4695 47.1116 30.7395 47.7613C31.1023 48.6304 34.819 46.4662 36.5403 42.9393C38.1012 39.7457 37.9156 36.3749 37.1562 36.4846Z" fill="#FEFFFA"/>
<path d="M23.563 32.4927C23.3437 32.8176 23.542 35.6652 23.6727 35.7918C23.9259 36.0449 25.8496 35.1379 25.8496 35.1379L25.7779 42.7527C25.7779 42.7527 24.3646 42.7358 24.217 42.7907C23.9259 42.9004 23.9638 45.8366 24.179 45.9801C24.3941 46.1235 30.1612 46.1994 30.3805 45.9083C30.5999 45.6172 30.5451 43.048 30.4438 42.9299C30.2624 42.7105 28.8829 42.7991 28.8829 42.7991C28.8829 42.7991 29.001 31.5857 28.963 31.2271C28.9251 30.8685 28.5285 30.6449 28.056 30.7546C27.5835 30.8643 23.7023 32.2818 23.563 32.4927Z" fill="#FA912C"/>
<path d="M10.7629 1.56943C10.4972 1.81412 20.6601 19.9126 20.6601 19.9126C20.6601 19.9126 22.3645 20.1319 26.1698 20.1657C29.9751 20.1994 31.8609 19.9463 31.8609 19.9463C31.8609 19.9463 23.9592 1.75083 23.4867 1.56943C23.2547 1.47662 20.1243 1.44287 17.0657 1.40912C14.0029 1.37115 11.0161 1.33318 10.7629 1.56943Z" fill="#2E9DF4"/>
</svg>
