<svg width="45" height="45" viewBox="0 0 45 45" fill="none" xmlns="http://www.w3.org/2000/svg">
<path d="M24.2879 1.49018C23.9082 1.82768 20.9551 7.68823 20.9551 7.68823L18.7578 16.5511L27.3078 15.7671C27.3078 15.7671 34.4199 2.54135 34.5641 2.23549C34.8207 1.68003 34.9578 1.45151 33.977 1.45151C32.9961 1.44799 24.643 1.17378 24.2879 1.49018Z" fill="#176CC7"/>
<path d="M28.7167 15.2193C28.2913 14.9908 15.7616 14.7939 15.4663 15.2193C15.1991 15.606 15.3503 17.6345 15.4523 17.8771C15.6351 18.299 19.6816 20.1377 19.6816 20.1377L19.6042 20.9744C19.6042 20.9744 19.9347 21.0587 22.2866 21.0587C24.6386 21.0587 25.1026 20.9392 25.1026 20.9392L25.1097 20.1834C25.1097 20.1834 28.7519 18.4115 28.9347 18.1654C29.0894 17.9615 29.1421 15.4478 28.7167 15.2193ZM24.9866 18.4255C24.9866 18.4255 25.1026 17.9087 24.8601 17.7892C24.6175 17.6662 20.455 17.7224 20.1245 17.74C19.7941 17.7576 19.7941 18.3482 19.7941 18.3482L17.1222 16.7556V16.4955L27.0714 16.5658L27.089 16.8611L24.9866 18.4255Z" fill="#CECDD2"/>
<path d="M20.8328 17.9902C20.5023 17.9902 20.3125 18.3348 20.3125 18.9289C20.3125 19.4844 20.5023 19.952 20.9207 19.9168C21.2652 19.8887 21.3848 19.3613 21.3531 18.8938C21.3215 18.3383 21.2512 17.9902 20.8328 17.9902Z" fill="#FDFFFF"/>
<path d="M10.1836 32.3058C10.1836 40.7292 17.9355 44.3046 23.0016 44.1535C28.9043 43.9777 35.134 39.4988 34.7297 31.462C34.3465 23.8472 27.8883 20.4617 22.3406 20.5003C15.893 20.5495 10.1836 24.9476 10.1836 32.3058Z" fill="#CECDD2"/>
<path d="M22.6865 42.5855C22.5986 42.5855 22.5072 42.5855 22.4193 42.582C19.7826 42.4941 17.1775 41.3832 15.272 39.5375C13.2329 37.5617 12.115 34.8898 12.129 32.0176C12.1607 25.0039 18.2919 21.752 22.4509 21.752H22.4861C28.1216 21.7766 32.7482 26.157 32.8783 32.0949C32.9345 34.7387 31.8517 37.5125 29.7283 39.6008C27.7454 41.5449 25.1158 42.5855 22.6865 42.5855ZM22.4439 22.9191C18.7138 22.9191 13.1978 25.9707 13.1837 32.0176C13.1732 36.5387 16.6747 41.1863 22.5072 41.3832C24.729 41.4535 27.0177 40.6027 28.8669 38.7852C30.7865 36.8973 31.8658 34.4645 31.8271 32.109C31.7357 27.0008 27.5591 22.9367 22.4896 22.9121C22.4826 22.9121 22.4544 22.9191 22.4439 22.9191Z" fill="#9B9B9D"/>
<path d="M20.4241 21.6111C20.1816 21.2771 17.696 21.372 15.0206 23.6748C12.3628 25.9634 11.9655 28.4947 12.4437 28.6283C12.9886 28.7794 13.653 26.3326 15.9487 24.2759C18.0581 22.3951 20.9058 22.2755 20.4241 21.6111ZM30.8972 30.8396C30.0499 30.9591 30.9288 33.4974 28.9636 36.338C27.2585 38.8025 25.3249 39.6955 25.5499 40.2369C25.8523 40.9611 28.9495 39.1576 30.3839 36.2185C31.6812 33.5607 31.5265 30.7517 30.8972 30.8396Z" fill="#FEFFFA"/>
<path d="M8.96911 1.30753C8.74763 1.51144 17.2168 16.5935 17.2168 16.5935C17.2168 16.5935 18.6371 16.7763 21.8082 16.8044C24.9793 16.8325 26.5508 16.6216 26.5508 16.6216C26.5508 16.6216 19.966 1.4587 19.5722 1.30753C19.3789 1.23019 16.7703 1.20206 14.2215 1.17394C11.6691 1.1423 9.18005 1.11066 8.96911 1.30753Z" fill="#2E9DF4"/>
<path d="M19.9864 30.3567C20.352 30.3602 20.679 29.8645 20.9813 29.5622C21.6247 28.9153 22.2997 28.402 23.0696 29.0981C24.961 30.8173 21.1641 32.561 19.7227 34.9446C18.647 36.7235 18.429 38.0911 18.7278 38.4567C19.0266 38.8223 26.3005 38.8048 26.3989 38.6219C26.4973 38.4391 26.5993 36.0028 26.4306 35.8868C26.2618 35.7708 22.6864 35.8376 22.6864 35.8376C22.6864 35.8376 22.9852 35.1415 24.2122 34.0798C25.5587 32.9161 26.638 31.3165 26.3497 29.4251C25.752 25.5157 21.8145 25.3716 20.1095 26.7321C18.4466 28.0575 18.8052 30.3427 19.9864 30.3567Z" fill="#9B9B9D"/>
</svg>
