<svg width="41" height="41" viewBox="0 0 41 41" fill="none" xmlns="http://www.w3.org/2000/svg">
<path d="M22.1323 1.3575C21.7863 1.665 19.0957 7.00461 19.0957 7.00461L17.0938 15.0797L24.8837 14.3654C24.8837 14.3654 31.3637 2.31524 31.495 2.03657C31.7288 1.53047 31.8538 1.32227 30.9601 1.32227C30.0664 1.31907 22.4558 1.06922 22.1323 1.3575Z" fill="#176CC7"/>
<path d="M26.1623 13.8669C25.7747 13.6587 14.3588 13.4794 14.0897 13.8669C13.8463 14.2193 13.984 16.0675 14.0769 16.2885C14.2435 16.6729 17.9303 18.3481 17.9303 18.3481L17.8598 19.1105C17.8598 19.1105 18.1609 19.1873 20.3038 19.1873C22.4467 19.1873 22.8695 19.0784 22.8695 19.0784L22.8759 18.3898C22.8759 18.3898 26.1943 16.7754 26.3609 16.5512C26.5018 16.3654 26.5499 14.0751 26.1623 13.8669ZM22.7638 16.7882C22.7638 16.7882 22.8695 16.3173 22.6485 16.2084C22.4274 16.0963 18.6349 16.1476 18.3339 16.1636C18.0328 16.1796 18.0328 16.7177 18.0328 16.7177L15.6432 15.4877L15.5984 15.0297L24.6632 15.0937L24.6312 15.5262L22.7638 16.7882Z" fill="#F79429"/>
<path d="M18.9819 16.6211C18.6808 16.6211 18.5078 16.935 18.5078 17.4763C18.5078 17.9824 18.6808 18.4084 19.062 18.3764C19.3759 18.3508 19.4848 17.8703 19.4559 17.4443C19.4271 16.935 19.363 16.6211 18.9819 16.6211Z" fill="#FDFFFF"/>
<path d="M9.38672 29.4982C9.38672 37.1729 16.3407 40.3664 20.9564 40.2286C26.3345 40.0685 32.1193 35.9877 31.642 28.6654C31.1936 21.7947 25.4087 18.6428 20.3542 18.678C14.4797 18.7229 9.38672 22.794 9.38672 29.4982Z" fill="#F79429"/>
<path d="M20.7129 39.0677C20.6328 39.0677 20.5495 39.0677 20.4694 39.0645C18.0671 38.9844 15.6936 37.9722 13.9575 36.2905C12.0997 34.4904 11.0811 32.056 11.0939 29.4391C11.1227 23.0488 16.7089 20.0859 20.4982 20.0859H20.5303C25.6649 20.1084 29.8802 24.0995 29.9987 29.5095C30.05 31.9183 29.2812 34.3142 27.3465 36.2169C25.54 37.985 22.9262 39.0677 20.7129 39.0677ZM20.4918 21.1494C17.0933 21.1494 12.0676 23.9297 12.0548 29.4391C12.0452 33.5583 15.2355 37.7928 20.5495 37.9722C22.5739 38.0363 24.8577 37.2867 26.5393 35.6339C28.2882 33.9138 29.073 31.6716 29.0378 29.5255C28.9609 24.8714 25.1556 21.1686 20.5367 21.1494C20.5271 21.143 20.5014 21.1494 20.4918 21.1494Z" fill="#D25116"/>
<path d="M18.6055 19.6902C18.3845 19.3859 16.1199 19.4724 13.6823 21.5705C11.2608 23.6557 10.8988 25.9619 11.3344 26.0837C11.8309 26.2214 12.4363 23.992 14.528 22.1182C16.4498 20.4045 19.0444 20.2956 18.6055 19.6902ZM28.3398 28.0728C27.5679 28.1817 28.3687 30.4944 26.5781 33.0825C25.0246 35.3279 23.2629 36.1415 23.4679 36.6348C23.7433 37.2946 26.5653 35.6514 27.8722 32.9736C29.0541 30.5488 28.9132 27.9895 28.3398 28.0728Z" fill="#FEFFFA"/>
<path d="M8.17186 1.192C7.97006 1.37778 15.6864 15.1192 15.6864 15.1192C15.6864 15.1192 16.9805 15.2858 19.8697 15.3114C22.7589 15.337 24.1907 15.1448 24.1907 15.1448C24.1907 15.1448 18.1912 1.32974 17.8325 1.192C17.6563 1.12153 15.2796 1.09591 12.9573 1.07028C10.6319 1.04145 8.36405 1.01263 8.17186 1.192Z" fill="#2E9DF4"/>
<path d="M24.0068 26.8137C23.6353 23.5946 19.8876 23.3255 18.3341 24.5619C16.8222 25.7663 16.9664 27.4448 18.0266 27.6402C18.8626 27.7939 19.0804 27.1309 19.3239 26.8266C19.8748 26.1443 20.7525 26.0802 21.3258 26.628C21.9761 27.2526 21.5757 28.7452 20.5987 28.8061C19.8716 28.8509 19.5033 28.8125 19.4104 28.9374C19.279 29.1136 19.2983 30.5005 19.4328 30.6543C19.5865 30.8305 20.2015 30.7216 20.73 30.7408C21.4572 30.7696 22.2291 31.8459 21.7198 32.653C21.1913 33.4891 19.7851 33.1143 19.279 32.6082C18.6096 31.9387 17.9401 32.3231 17.7159 32.5858C17.3636 33.0022 16.9888 33.9503 18.2893 34.8728C19.5865 35.7953 23.5232 35.9715 24.3175 33.1143C25.0094 30.6191 23.395 29.5941 23.395 29.5941C23.395 29.5941 24.2182 28.6491 24.0068 26.8137Z" fill="#D25116"/>
</svg>
