<svg width="250" height="146" viewBox="0 0 250 146" fill="none" xmlns="http://www.w3.org/2000/svg">
<rect width="250" height="146" rx="10" fill="#D3D3D3" fill-opacity="0.8"/>
<path d="M133.75 63H116.25C115.918 63 115.601 63.1505 115.366 63.4184C115.132 63.6863 115 64.0497 115 64.4286V81.5714C115 81.9503 115.132 82.3137 115.366 82.5816C115.601 82.8495 115.918 83 116.25 83H133.75C134.082 83 134.399 82.8495 134.634 82.5816C134.868 82.3137 135 81.9503 135 81.5714V64.4286C135 64.0497 134.868 63.6863 134.634 63.4184C134.399 63.1505 134.082 63 133.75 63ZM119.325 65.8571C119.696 65.8571 120.058 65.9828 120.367 66.2183C120.675 66.4537 120.915 66.7884 121.057 67.18C121.199 67.5715 121.236 68.0024 121.164 68.4181C121.092 68.8337 120.913 69.2155 120.651 69.5152C120.389 69.8149 120.055 70.019 119.691 70.1017C119.327 70.1844 118.95 70.1419 118.607 69.9797C118.265 69.8176 117.972 69.5429 117.766 69.1905C117.56 68.8381 117.45 68.4238 117.45 68C117.45 67.4317 117.648 66.8866 117.999 66.4848C118.351 66.0829 118.828 65.8571 119.325 65.8571ZM117.5 79.4286V76.5L121.25 72.1571C121.367 72.0241 121.526 71.9494 121.691 71.9494C121.856 71.9494 122.014 72.0241 122.131 72.1571L123.75 73.9643L118.95 79.4286H117.5ZM132.5 79.4286H120.719L124.612 74.9786L127.988 71.1214C128.105 70.9884 128.263 70.9137 128.428 70.9137C128.593 70.9137 128.752 70.9884 128.869 71.1214L132.5 75.2714V79.4286Z" fill="#737373"/>
</svg>
